<svg width="125" height="66" viewBox="0 0 125 66" fill="none" xmlns="http://www.w3.org/2000/svg">
<g clip-path="url(#clip0_1148_29598)">
<path d="M76.5 14V38.5H48.5V14C48.5 10.745 50.74 8.0325 53.75 7.245V3.5H59V7H66V3.5H71.25V7.245C74.26 8.0325 76.5 10.745 76.5 14ZM52 21V24.5H69.5V28H73V21H52Z" fill="white"/>
</g>
<path d="M36.8377 55.004C37.7244 55.004 38.4664 55.088 39.0637 55.256C39.6704 55.4147 40.1231 55.6807 40.4217 56.054C40.7297 56.418 40.8837 56.9127 40.8837 57.538C40.8837 57.9113 40.8231 58.252 40.7017 58.56C40.5804 58.868 40.4031 59.12 40.1697 59.316C39.9457 59.512 39.6704 59.638 39.3437 59.694V59.764C39.6797 59.8293 39.9831 59.946 40.2537 60.114C40.5244 60.282 40.7391 60.5247 40.8977 60.842C41.0564 61.1593 41.1357 61.5793 41.1357 62.102C41.1357 62.7087 40.9864 63.2313 40.6877 63.67C40.3984 64.0993 39.9784 64.4307 39.4277 64.664C38.8771 64.888 38.2237 65 37.4677 65H33.7297V55.004H36.8377ZM37.0757 58.966C37.6917 58.966 38.1164 58.868 38.3497 58.672C38.5924 58.476 38.7137 58.1913 38.7137 57.818C38.7137 57.4353 38.5737 57.16 38.2937 56.992C38.0137 56.824 37.5704 56.74 36.9637 56.74H35.8437V58.966H37.0757ZM35.8437 60.646V63.25H37.2297C37.8644 63.25 38.3077 63.1287 38.5597 62.886C38.8117 62.634 38.9377 62.3027 38.9377 61.892C38.9377 61.64 38.8817 61.4207 38.7697 61.234C38.6671 61.0473 38.4851 60.9027 38.2237 60.8C37.9624 60.6973 37.6077 60.646 37.1597 60.646H35.8437ZM46.104 57.202C47.1306 57.202 47.9146 57.426 48.456 57.874C49.0066 58.3127 49.282 58.9893 49.282 59.904V65H47.826L47.42 63.964H47.364C47.1493 64.2347 46.9253 64.4587 46.692 64.636C46.468 64.8133 46.2066 64.9393 45.908 65.014C45.6186 65.098 45.2593 65.14 44.83 65.14C44.382 65.14 43.976 65.056 43.612 64.888C43.2573 64.7107 42.9773 64.4447 42.772 64.09C42.5666 63.726 42.464 63.2687 42.464 62.718C42.464 61.906 42.7486 61.3087 43.318 60.926C43.8873 60.534 44.7413 60.3193 45.88 60.282L47.21 60.24V59.904C47.21 59.5027 47.1026 59.2087 46.888 59.022C46.6826 58.8353 46.3933 58.742 46.02 58.742C45.6466 58.742 45.2826 58.798 44.928 58.91C44.5733 59.0127 44.2186 59.1433 43.864 59.302L43.178 57.888C43.5886 57.6733 44.0413 57.5053 44.536 57.384C45.04 57.2627 45.5626 57.202 46.104 57.202ZM46.398 61.486C45.726 61.5047 45.2593 61.626 44.998 61.85C44.7366 62.074 44.606 62.368 44.606 62.732C44.606 63.0493 44.6993 63.278 44.886 63.418C45.0726 63.5487 45.3153 63.614 45.614 63.614C46.062 63.614 46.44 63.4833 46.748 63.222C47.056 62.9513 47.21 62.5733 47.21 62.088V61.458L46.398 61.486ZM54.5252 65.14C53.7692 65.14 53.1252 65.0047 52.5932 64.734C52.0612 64.454 51.6552 64.0247 51.3752 63.446C51.0952 62.8673 50.9552 62.1253 50.9552 61.22C50.9552 60.2867 51.1139 59.526 51.4312 58.938C51.7485 58.35 52.1872 57.916 52.7472 57.636C53.3165 57.356 53.9699 57.216 54.7072 57.216C55.2299 57.216 55.6825 57.2673 56.0652 57.37C56.4572 57.4727 56.7979 57.594 57.0872 57.734L56.4712 59.344C56.1445 59.2133 55.8365 59.106 55.5472 59.022C55.2672 58.938 54.9872 58.896 54.7072 58.896C54.3432 58.896 54.0399 58.9847 53.7972 59.162C53.5545 59.33 53.3725 59.5867 53.2512 59.932C53.1392 60.268 53.0832 60.6927 53.0832 61.206C53.0832 61.71 53.1439 62.13 53.2652 62.466C53.3959 62.7927 53.5825 63.04 53.8252 63.208C54.0679 63.3667 54.3619 63.446 54.7072 63.446C55.1459 63.446 55.5332 63.39 55.8692 63.278C56.2052 63.1567 56.5319 62.9933 56.8492 62.788V64.566C56.5319 64.7713 56.1959 64.916 55.8412 65C55.4959 65.0933 55.0572 65.14 54.5252 65.14ZM60.6946 59.12C60.6946 59.4093 60.6806 59.6987 60.6526 59.988C60.6339 60.268 60.6106 60.5527 60.5826 60.842H60.6106C60.7039 60.7113 60.7973 60.5807 60.8906 60.45C60.9933 60.3193 61.0959 60.1887 61.1986 60.058C61.3013 59.9273 61.4086 59.8013 61.5206 59.68L63.6626 57.356H66.0146L62.9766 60.674L66.1966 65H63.7886L61.5906 61.906L60.6946 62.62V65H58.6086V54.36H60.6946V59.12ZM70.4402 57.216C71.1496 57.216 71.7562 57.3513 72.2602 57.622C72.7736 57.8927 73.1702 58.2847 73.4502 58.798C73.7302 59.3113 73.8702 59.9413 73.8702 60.688V61.696H68.9422C68.9609 62.284 69.1336 62.746 69.4602 63.082C69.7962 63.418 70.2582 63.586 70.8462 63.586C71.3409 63.586 71.7889 63.5393 72.1902 63.446C72.5916 63.3433 73.0069 63.1893 73.4362 62.984V64.594C73.0629 64.7807 72.6662 64.916 72.2462 65C71.8356 65.0933 71.3362 65.14 70.7482 65.14C69.9829 65.14 69.3062 65 68.7182 64.72C68.1302 64.4307 67.6682 63.9967 67.3322 63.418C66.9962 62.8393 66.8282 62.1113 66.8282 61.234C66.8282 60.338 66.9776 59.596 67.2762 59.008C67.5842 58.4107 68.0089 57.9627 68.5502 57.664C69.0916 57.3653 69.7216 57.216 70.4402 57.216ZM70.4542 58.7C70.0529 58.7 69.7169 58.8307 69.4462 59.092C69.1849 59.3533 69.0309 59.7593 68.9842 60.31H71.9102C71.9102 60.002 71.8542 59.7267 71.7422 59.484C71.6396 59.2413 71.4809 59.05 71.2662 58.91C71.0516 58.77 70.7809 58.7 70.4542 58.7ZM79.9017 57.216C80.7231 57.216 81.3811 57.44 81.8757 57.888C82.3704 58.3267 82.6177 59.036 82.6177 60.016V65H80.5317V60.534C80.5317 59.9833 80.4337 59.5727 80.2377 59.302C80.0417 59.022 79.7291 58.882 79.2997 58.882C78.6651 58.882 78.2311 59.1013 77.9977 59.54C77.7644 59.9693 77.6477 60.59 77.6477 61.402V65H75.5617V57.356H77.1577L77.4377 58.336H77.5497C77.7177 58.0747 77.9231 57.8647 78.1657 57.706C78.4084 57.538 78.6791 57.4167 78.9777 57.342C79.2764 57.258 79.5844 57.216 79.9017 57.216ZM87.1849 65.14C86.3356 65.14 85.6402 64.8087 85.0989 64.146C84.5669 63.474 84.3009 62.4893 84.3009 61.192C84.3009 59.8853 84.5716 58.896 85.1129 58.224C85.6542 57.552 86.3636 57.216 87.2409 57.216C87.6049 57.216 87.9269 57.2673 88.2069 57.37C88.4869 57.4633 88.7249 57.594 88.9209 57.762C89.1262 57.93 89.2989 58.1213 89.4389 58.336H89.5089C89.4809 58.1867 89.4482 57.972 89.4109 57.692C89.3736 57.4027 89.3549 57.1087 89.3549 56.81V54.36H91.4409V65H89.8449L89.4389 64.006H89.3549C89.2242 64.2113 89.0562 64.4027 88.8509 64.58C88.6549 64.748 88.4216 64.8833 88.1509 64.986C87.8802 65.0887 87.5582 65.14 87.1849 65.14ZM87.9129 63.474C88.4916 63.474 88.8976 63.306 89.1309 62.97C89.3642 62.6247 89.4856 62.1113 89.4949 61.43V61.206C89.4949 60.4593 89.3782 59.89 89.1449 59.498C88.9209 59.106 88.5009 58.91 87.8849 58.91C87.4276 58.91 87.0682 59.1107 86.8069 59.512C86.5456 59.904 86.4149 60.4733 86.4149 61.22C86.4149 61.9667 86.5456 62.5313 86.8069 62.914C87.0682 63.2873 87.4369 63.474 87.9129 63.474Z" fill="white"/>
<defs>
<clipPath id="clip0_1148_29598">
<rect width="42" height="42" fill="white" transform="translate(41.5)"/>
</clipPath>
</defs>
</svg>
