<svg width="125" height="69" viewBox="0 0 125 69" fill="none" xmlns="http://www.w3.org/2000/svg">
<path d="M54.1 30.8001C57.1928 30.8001 59.7 28.2929 59.7 25.2001C59.7 22.1073 57.1928 19.6001 54.1 19.6001C51.0072 19.6001 48.5 22.1073 48.5 25.2001C48.5 28.2929 51.0072 30.8001 54.1 30.8001Z" fill="white"/>
<path d="M67.3999 35C69.3329 35 70.8999 33.433 70.8999 31.5C70.8999 29.567 69.3329 28 67.3999 28C65.4669 28 63.8999 29.567 63.8999 31.5C63.8999 33.433 65.4669 35 67.3999 35Z" fill="white"/>
<path d="M68.1 23.8C72.7391 23.8 76.5 20.0392 76.5 15.4C76.5 10.7608 72.7391 7 68.1 7C63.4608 7 59.7 10.7608 59.7 15.4C59.7 20.0392 63.4608 23.8 68.1 23.8Z" fill="white"/>
<path d="M25.2524 61.472C25.2524 62.1627 25.0984 62.788 24.7904 63.348C24.4917 63.8987 24.0344 64.3373 23.4184 64.664C22.8117 64.9813 22.0417 65.14 21.1084 65.14C19.7831 65.14 18.7751 64.804 18.0844 64.132C17.3937 63.4507 17.0484 62.5547 17.0484 61.444V55.004H19.1624V61.122C19.1624 61.9433 19.3304 62.522 19.6664 62.858C20.0024 63.194 20.5017 63.362 21.1644 63.362C21.6311 63.362 22.0091 63.2827 22.2984 63.124C22.5877 62.9653 22.7977 62.718 22.9284 62.382C23.0684 62.046 23.1384 61.6213 23.1384 61.108V55.004H25.2524V61.472ZM31.4384 65H26.8884V63.796L28.1064 63.236V56.768L26.8884 56.208V55.004H31.4384V56.208L30.2204 56.768V63.236L31.4384 63.796V65ZM37.5938 55.004L33.8698 65H31.9798L35.7038 55.004H37.5938ZM47.059 61.472C47.059 62.1627 46.905 62.788 46.597 63.348C46.2984 63.8987 45.841 64.3373 45.225 64.664C44.6184 64.9813 43.8484 65.14 42.915 65.14C41.5897 65.14 40.5817 64.804 39.891 64.132C39.2004 63.4507 38.855 62.5547 38.855 61.444V55.004H40.969V61.122C40.969 61.9433 41.137 62.522 41.473 62.858C41.809 63.194 42.3084 63.362 42.971 63.362C43.4377 63.362 43.8157 63.2827 44.105 63.124C44.3944 62.9653 44.6044 62.718 44.735 62.382C44.875 62.046 44.945 61.6213 44.945 61.108V55.004H47.059V61.472ZM57.5851 65H55.1631L52.8391 61.22L50.5151 65H48.2471L51.5651 59.848L48.4571 55.004H50.7951L52.9511 58.602L55.0651 55.004H57.3471L54.2111 59.96L57.5851 65ZM70.7697 59.904C70.7697 61.024 70.555 61.962 70.1257 62.718C69.6963 63.474 69.071 64.0433 68.2497 64.426C67.4377 64.8087 66.4577 65 65.3097 65H62.4817V55.004H65.6177C66.663 55.004 67.5683 55.1907 68.3337 55.564C69.1083 55.9373 69.7057 56.488 70.1257 57.216C70.555 57.9347 70.7697 58.8307 70.7697 59.904ZM68.5717 59.96C68.5717 59.2227 68.4643 58.616 68.2497 58.14C68.035 57.664 67.713 57.314 67.2837 57.09C66.8637 56.8567 66.3457 56.74 65.7297 56.74H64.5957V63.25H65.5057C66.5417 63.25 67.3117 62.9747 67.8157 62.424C68.3197 61.8733 68.5717 61.052 68.5717 59.96ZM75.827 57.216C76.5363 57.216 77.143 57.3513 77.647 57.622C78.1603 57.8927 78.557 58.2847 78.837 58.798C79.117 59.3113 79.257 59.9413 79.257 60.688V61.696H74.329C74.3476 62.284 74.5203 62.746 74.847 63.082C75.183 63.418 75.645 63.586 76.233 63.586C76.7276 63.586 77.1756 63.5393 77.577 63.446C77.9783 63.3433 78.3936 63.1893 78.823 62.984V64.594C78.4496 64.7807 78.053 64.916 77.633 65C77.2223 65.0933 76.723 65.14 76.135 65.14C75.3696 65.14 74.693 65 74.105 64.72C73.517 64.4307 73.055 63.9967 72.719 63.418C72.383 62.8393 72.215 62.1113 72.215 61.234C72.215 60.338 72.3643 59.596 72.663 59.008C72.971 58.4107 73.3956 57.9627 73.937 57.664C74.4783 57.3653 75.1083 57.216 75.827 57.216ZM75.841 58.7C75.4396 58.7 75.1036 58.8307 74.833 59.092C74.5716 59.3533 74.4176 59.7593 74.371 60.31H77.297C77.297 60.002 77.241 59.7267 77.129 59.484C77.0263 59.2413 76.8676 59.05 76.653 58.91C76.4383 58.77 76.1676 58.7 75.841 58.7ZM86.2824 62.732C86.2824 63.2453 86.1611 63.684 85.9184 64.048C85.6758 64.4027 85.3118 64.6733 84.8264 64.86C84.3411 65.0467 83.7391 65.14 83.0204 65.14C82.4884 65.14 82.0311 65.1027 81.6484 65.028C81.2658 64.9627 80.8831 64.8507 80.5004 64.692V62.97C80.9111 63.1567 81.3544 63.3107 81.8304 63.432C82.3064 63.5533 82.7264 63.614 83.0904 63.614C83.5011 63.614 83.7904 63.5533 83.9584 63.432C84.1358 63.3107 84.2244 63.152 84.2244 62.956C84.2244 62.8253 84.1871 62.7087 84.1124 62.606C84.0471 62.5033 83.8978 62.3867 83.6644 62.256C83.4311 62.1253 83.0671 61.9573 82.5724 61.752C82.0964 61.5467 81.7044 61.346 81.3964 61.15C81.0884 60.9447 80.8598 60.702 80.7104 60.422C80.5611 60.1327 80.4864 59.7733 80.4864 59.344C80.4864 58.6347 80.7618 58.1027 81.3124 57.748C81.8631 57.3933 82.5958 57.216 83.5104 57.216C83.9864 57.216 84.4391 57.2627 84.8684 57.356C85.2978 57.4493 85.7411 57.6033 86.1984 57.818L85.5684 59.316C85.3164 59.204 85.0738 59.106 84.8404 59.022C84.6071 58.938 84.3784 58.8727 84.1544 58.826C83.9398 58.7793 83.7158 58.756 83.4824 58.756C83.1744 58.756 82.9411 58.798 82.7824 58.882C82.6331 58.966 82.5584 59.092 82.5584 59.26C82.5584 59.3813 82.5958 59.4933 82.6704 59.596C82.7544 59.6893 82.9084 59.792 83.1324 59.904C83.3658 60.016 83.7064 60.1653 84.1544 60.352C84.5931 60.5293 84.9711 60.716 85.2884 60.912C85.6058 61.0987 85.8484 61.3367 86.0164 61.626C86.1938 61.906 86.2824 62.2747 86.2824 62.732ZM89.9934 57.356V65H87.9074V57.356H89.9934ZM88.9574 54.36C89.2654 54.36 89.5314 54.4347 89.7554 54.584C89.9794 54.724 90.0914 54.99 90.0914 55.382C90.0914 55.7647 89.9794 56.0307 89.7554 56.18C89.5314 56.3293 89.2654 56.404 88.9574 56.404C88.6401 56.404 88.3694 56.3293 88.1454 56.18C87.9308 56.0307 87.8234 55.7647 87.8234 55.382C87.8234 54.99 87.9308 54.724 88.1454 54.584C88.3694 54.4347 88.6401 54.36 88.9574 54.36ZM94.6511 57.216C95.1177 57.216 95.5377 57.3093 95.9111 57.496C96.2844 57.6827 96.6017 57.9627 96.8631 58.336H96.9191L97.0871 57.356H98.8511V65.014C98.8511 65.742 98.7064 66.3533 98.4171 66.848C98.1371 67.3427 97.7124 67.716 97.1431 67.968C96.5737 68.2293 95.8691 68.36 95.0291 68.36C94.4877 68.36 93.9837 68.3273 93.5171 68.262C93.0597 68.1967 92.6117 68.08 92.1731 67.912V66.246C92.4904 66.3767 92.8077 66.484 93.1251 66.568C93.4517 66.6613 93.7831 66.7267 94.1191 66.764C94.4644 66.8107 94.8097 66.834 95.1551 66.834C95.6964 66.834 96.0977 66.6893 96.3591 66.4C96.6297 66.1107 96.7651 65.6767 96.7651 65.098V64.944C96.7651 64.7853 96.7697 64.622 96.7791 64.454C96.7977 64.286 96.8117 64.1367 96.8211 64.006H96.7651C96.5037 64.4073 96.1911 64.6967 95.8271 64.874C95.4631 65.0513 95.0524 65.14 94.5951 65.14C93.6897 65.14 92.9804 64.7947 92.4671 64.104C91.9631 63.404 91.7111 62.4333 91.7111 61.192C91.7111 60.352 91.8277 59.638 92.0611 59.05C92.2944 58.4527 92.6304 58 93.0691 57.692C93.5171 57.3747 94.0444 57.216 94.6511 57.216ZM95.3091 58.91C94.9824 58.91 94.7071 58.9987 94.4831 59.176C94.2684 59.344 94.1051 59.6007 93.9931 59.946C93.8904 60.282 93.8391 60.7067 93.8391 61.22C93.8391 61.9853 93.9604 62.5593 94.2031 62.942C94.4457 63.3153 94.8237 63.502 95.3371 63.502C95.6077 63.502 95.8411 63.4693 96.0371 63.404C96.2331 63.3293 96.3917 63.2127 96.5131 63.054C96.6437 62.886 96.7417 62.6713 96.8071 62.41C96.8724 62.1487 96.9051 61.8313 96.9051 61.458V61.206C96.9051 60.6553 96.8491 60.212 96.7371 59.876C96.6251 59.54 96.4524 59.2973 96.2191 59.148C95.9857 58.9893 95.6824 58.91 95.3091 58.91ZM105.372 57.216C106.194 57.216 106.852 57.44 107.346 57.888C107.841 58.3267 108.088 59.036 108.088 60.016V65H106.002V60.534C106.002 59.9833 105.904 59.5727 105.708 59.302C105.512 59.022 105.2 58.882 104.77 58.882C104.136 58.882 103.702 59.1013 103.468 59.54C103.235 59.9693 103.118 60.59 103.118 61.402V65H101.032V57.356H102.628L102.908 58.336H103.02C103.188 58.0747 103.394 57.8647 103.636 57.706C103.879 57.538 104.15 57.4167 104.448 57.342C104.747 57.258 105.055 57.216 105.372 57.216Z" fill="white"/>
</svg>
