<svg width="70" height="70" viewBox="0 0 70 70" fill="none" xmlns="http://www.w3.org/2000/svg">
<path d="M64.7397 64.8957H5.10449V5.104H64.7397V64.8957Z" fill="black"/>
<path d="M29.7827 34.5513L37.4058 21.31C37.4644 21.2107 37.5747 21.0268 37.5747 21.0268C37.5747 21.0268 37.4537 20.8061 37.4058 20.7216L35.4286 17.2862C35.3186 17.0912 34.9223 16.4365 34.9223 16.4365C34.9223 16.4365 34.5261 17.0912 34.416 17.2862L16.0148 49.2418C15.9048 49.4368 15.5049 50.1244 15.5049 50.1244C15.5049 50.1244 16.2936 50.1209 16.5211 50.1209H20.4794C20.5894 50.1209 20.8022 50.1244 20.8022 50.1244C20.8022 50.1244 20.9343 49.9149 20.9856 49.8266L26.4517 40.3334C26.5618 40.1383 26.958 39.5021 26.958 39.5021C26.958 39.5021 27.3542 40.1383 27.4642 40.3334L32.9339 49.8304C32.9853 49.9186 33.1137 50.1244 33.1137 50.1244H37.3986C37.6479 50.1244 38.422 50.1209 38.422 50.1209C38.422 50.1209 38.0075 49.422 37.9048 49.2455L29.7827 35.1362C29.7314 35.0514 29.6103 34.8456 29.6103 34.8456C29.6103 34.8456 29.7277 34.6468 29.7827 34.5513Z" fill="white"/>
<path d="M39.7237 26.4998L37.7465 29.9351C37.6951 30.0234 37.5703 30.2367 37.5703 30.2367C37.5703 30.2367 37.6913 30.4317 37.7465 30.5236L45.8721 44.633C45.9821 44.8243 46.3931 45.5157 46.3931 45.5157C46.3931 45.5157 45.5969 45.5157 45.3659 45.5157H42.0826C41.8588 45.5157 41.0626 45.5119 41.0626 45.5119C41.0626 45.5119 41.4626 46.1998 41.5764 46.3949L43.5535 49.8303C43.6049 49.9185 43.7335 50.1243 43.7335 50.1243H54.3355C54.3355 50.1243 53.9355 49.4219 53.8328 49.2454L40.7361 26.5034C40.6261 26.3122 40.2374 25.6611 40.2374 25.6611C40.2374 25.6611 39.8375 26.3085 39.7237 26.5034V26.4998Z" fill="white"/>
</svg>
