<svg width="52" height="40" viewBox="0 0 52 40" fill="none" xmlns="http://www.w3.org/2000/svg">
<path d="M44.4855 1.056C41.9819 0.768 39.5747 0.576001 37.0712 0.384001C34.5677 0.192001 32.1605 0.0960004 29.657 0.0960004C28.4052 0.0960004 27.1535 0 25.8054 0C24.65 0 23.3982 3.6478e-07 22.2427 0.0960004C19.7392 0.0960004 17.332 0.288001 14.8285 0.384001C12.325 0.576001 9.91775 0.768 7.41424 1.056C4.91073 1.344 2.50351 1.632 0 2.016V9.504C2.50351 9.12 4.91073 8.736 7.41424 8.448C9.82147 8.16 12.325 7.968 14.8285 7.776C17.332 7.584 19.7392 7.488 22.2427 7.488C23.3982 7.488 24.65 7.488 25.8054 7.488C27.0572 7.488 28.3089 7.488 29.657 7.488C32.1605 7.584 34.5677 7.68 37.0712 7.776C39.5747 7.968 41.9819 8.16 44.4855 8.448C46.989 8.736 49.3962 9.12 51.8997 9.504V2.016C49.4925 1.632 46.989 1.344 44.4855 1.056Z" fill="black"/>
<path d="M44.4855 16.2243C42.0782 15.9363 39.5747 15.6483 37.0712 15.5523C34.5677 15.3603 32.1605 15.2643 29.657 15.1683C28.4052 15.1683 27.1535 15.0723 25.8054 15.0723C24.6499 15.0723 23.3982 15.0723 22.2427 15.0723C19.7392 15.1683 17.332 15.2643 14.8285 15.4563C12.325 15.6483 9.91775 15.8403 7.41424 16.1283C4.91073 16.4163 2.40722 16.8003 0 17.1843V24.6723V39.6483H7.41424V23.6163C9.91775 23.3283 12.325 23.0403 14.8285 22.8483V39.6483H22.1464V22.5603C23.3019 22.5603 24.5537 22.4643 25.7091 22.4643C26.9609 22.4643 28.2126 22.4643 29.5607 22.5603V39.7443H36.9749V22.8483C39.4784 23.0403 41.8857 23.2323 44.3892 23.6163V39.6483H51.8034V24.7683V17.2803C49.4925 16.8963 46.989 16.5123 44.4855 16.2243Z" fill="black"/>
</svg>
