<svg width="160" height="69" viewBox="0 0 160 69" fill="none" xmlns="http://www.w3.org/2000/svg">
<g clip-path="url(#clip0_1148_29600)">
<path d="M72.4088 16.8527L66.8352 14.384V13.7225L72.4088 10.9231V11.9743L68.1377 14.006L72.4088 15.8014V16.8527Z" fill="white"/>
<path d="M77.3518 18.1639H76.1197V12.5649C76.1197 12.3681 76.1197 12.1869 76.1197 12.0216C76.1275 11.8483 76.1354 11.683 76.1432 11.5255C76.151 11.3601 76.1588 11.2026 76.1666 11.053C76.065 11.1554 75.9594 11.2538 75.8498 11.3483C75.7403 11.4428 75.6152 11.553 75.4744 11.679L74.5591 12.4232L73.9255 11.62L76.3192 9.73003H77.3518V18.1639Z" fill="white"/>
<path d="M85.8853 13.9351C85.8853 14.6202 85.8305 15.2305 85.721 15.766C85.6193 16.3015 85.455 16.7582 85.2282 17.1362C85.0091 17.5063 84.7158 17.7898 84.3481 17.9867C83.9883 18.1835 83.5542 18.282 83.0457 18.282C82.4043 18.282 81.8763 18.1087 81.4617 17.7622C81.0471 17.4158 80.7381 16.9197 80.5347 16.2739C80.3313 15.6203 80.2296 14.8407 80.2296 13.9351C80.2296 13.0217 80.3196 12.2421 80.4995 11.5963C80.6872 10.9506 80.9884 10.4584 81.403 10.1198C81.8176 9.77334 82.3652 9.6001 83.0457 9.6001C83.6871 9.6001 84.2152 9.77334 84.6298 10.1198C85.0522 10.4584 85.3651 10.9506 85.5685 11.5963C85.7797 12.2421 85.8853 13.0217 85.8853 13.9351ZM81.4734 13.9351C81.4734 14.6675 81.5242 15.2778 81.6259 15.766C81.7276 16.2542 81.8919 16.6204 82.1187 16.8645C82.3534 17.1086 82.6624 17.2307 83.0457 17.2307C83.429 17.2307 83.7341 17.1126 83.9609 16.8763C84.1956 16.6322 84.3638 16.266 84.4655 15.7778C84.575 15.2817 84.6298 14.6675 84.6298 13.9351C84.6298 13.2028 84.575 12.5964 84.4655 12.1161C84.3638 11.6278 84.1956 11.2617 83.9609 11.0175C83.7341 10.7734 83.429 10.6514 83.0457 10.6514C82.6624 10.6514 82.3534 10.7734 82.1187 11.0175C81.8919 11.2617 81.7276 11.6278 81.6259 12.1161C81.5242 12.5964 81.4734 13.2028 81.4734 13.9351Z" fill="white"/>
<path d="M92.6 13.9351C92.6 14.6202 92.5453 15.2305 92.4358 15.766C92.3341 16.3015 92.1698 16.7582 91.943 17.1362C91.7239 17.5063 91.4306 17.7898 91.0629 17.9867C90.7031 18.1835 90.269 18.282 89.7605 18.282C89.1191 18.282 88.591 18.1087 88.1764 17.7622C87.7619 17.4158 87.4529 16.9197 87.2495 16.2739C87.0461 15.6203 86.9444 14.8407 86.9444 13.9351C86.9444 13.0217 87.0344 12.2421 87.2143 11.5963C87.402 10.9506 87.7032 10.4584 88.1178 10.1198C88.5324 9.77334 89.0799 9.6001 89.7605 9.6001C90.4019 9.6001 90.93 9.77334 91.3445 10.1198C91.767 10.4584 92.0799 10.9506 92.2832 11.5963C92.4944 12.2421 92.6 13.0217 92.6 13.9351ZM88.1882 13.9351C88.1882 14.6675 88.239 15.2778 88.3407 15.766C88.4424 16.2542 88.6067 16.6204 88.8335 16.8645C89.0682 17.1086 89.3772 17.2307 89.7605 17.2307C90.1438 17.2307 90.4489 17.1126 90.6757 16.8763C90.9104 16.6322 91.0786 16.266 91.1803 15.7778C91.2898 15.2817 91.3445 14.6675 91.3445 13.9351C91.3445 13.2028 91.2898 12.5964 91.1803 12.1161C91.0786 11.6278 90.9104 11.2617 90.6757 11.0175C90.4489 10.7734 90.1438 10.6514 89.7605 10.6514C89.3772 10.6514 89.0682 10.7734 88.8335 11.0175C88.6067 11.2617 88.4424 11.6278 88.3407 12.1161C88.239 12.5964 88.1882 13.2028 88.1882 13.9351Z" fill="white"/>
<path d="M72.4557 28.0533C72.4557 28.7384 72.4009 29.3486 72.2914 29.8841C72.1897 30.4196 72.0255 30.8763 71.7986 31.2543C71.5796 31.6244 71.2862 31.9079 70.9186 32.1048C70.5587 32.3017 70.1246 32.4001 69.6161 32.4001C68.9747 32.4001 68.4467 32.2269 68.0321 31.8804C67.6175 31.5339 67.3085 31.0378 67.1051 30.392C66.9017 29.7384 66.8 28.9588 66.8 28.0533C66.8 27.1398 66.89 26.3602 67.0699 25.7145C67.2577 25.0687 67.5588 24.5766 67.9734 24.2379C68.388 23.8915 68.9356 23.7182 69.6161 23.7182C70.2576 23.7182 70.7856 23.8915 71.2002 24.2379C71.6226 24.5766 71.9355 25.0687 72.1389 25.7145C72.3501 26.3602 72.4557 27.1398 72.4557 28.0533ZM68.0438 28.0533C68.0438 28.7856 68.0947 29.3959 68.1964 29.8841C68.298 30.3724 68.4623 30.7385 68.6892 30.9826C68.9238 31.2268 69.2328 31.3488 69.6161 31.3488C69.9994 31.3488 70.3045 31.2307 70.5314 30.9945C70.766 30.7503 70.9342 30.3842 71.0359 29.8959C71.1454 29.3998 71.2002 28.7856 71.2002 28.0533C71.2002 27.3209 71.1454 26.7145 71.0359 26.2342C70.9342 25.746 70.766 25.3798 70.5314 25.1357C70.3045 24.8916 69.9994 24.7695 69.6161 24.7695C69.2328 24.7695 68.9238 24.8916 68.6892 25.1357C68.4623 25.3798 68.298 25.746 68.1964 26.2342C68.0947 26.7145 68.0438 27.3209 68.0438 28.0533Z" fill="white"/>
<path d="M77.3518 32.282H76.1197V26.683C76.1197 26.4862 76.1197 26.3051 76.1197 26.1397C76.1275 25.9665 76.1354 25.8011 76.1432 25.6436C76.151 25.4782 76.1588 25.3207 76.1666 25.1711C76.065 25.2735 75.9594 25.3719 75.8498 25.4664C75.7403 25.5609 75.6152 25.6711 75.4744 25.7971L74.5591 26.5413L73.9255 25.7381L76.3192 23.8482H77.3518V32.282Z" fill="white"/>
<path d="M85.8853 28.0533C85.8853 28.7384 85.8305 29.3486 85.721 29.8841C85.6193 30.4196 85.455 30.8763 85.2282 31.2543C85.0091 31.6244 84.7158 31.9079 84.3481 32.1048C83.9883 32.3017 83.5542 32.4001 83.0457 32.4001C82.4043 32.4001 81.8763 32.2269 81.4617 31.8804C81.0471 31.5339 80.7381 31.0378 80.5347 30.392C80.3313 29.7384 80.2296 28.9588 80.2296 28.0533C80.2296 27.1398 80.3196 26.3602 80.4995 25.7145C80.6872 25.0687 80.9884 24.5766 81.403 24.2379C81.8176 23.8915 82.3652 23.7182 83.0457 23.7182C83.6871 23.7182 84.2152 23.8915 84.6298 24.2379C85.0522 24.5766 85.3651 25.0687 85.5685 25.7145C85.7797 26.3602 85.8853 27.1398 85.8853 28.0533ZM81.4734 28.0533C81.4734 28.7856 81.5242 29.3959 81.6259 29.8841C81.7276 30.3724 81.8919 30.7385 82.1187 30.9826C82.3534 31.2268 82.6624 31.3488 83.0457 31.3488C83.429 31.3488 83.7341 31.2307 83.9609 30.9945C84.1956 30.7503 84.3638 30.3842 84.4655 29.8959C84.575 29.3998 84.6298 28.7856 84.6298 28.0533C84.6298 27.3209 84.575 26.7145 84.4655 26.2342C84.3638 25.746 84.1956 25.3798 83.9609 25.1357C83.7341 24.8916 83.429 24.7695 83.0457 24.7695C82.6624 24.7695 82.3534 24.8916 82.1187 25.1357C81.8919 25.3798 81.7276 25.746 81.6259 26.2342C81.5242 26.7145 81.4734 27.3209 81.4734 28.0533Z" fill="white"/>
<path d="M86.9796 29.9196L91.2507 28.1241L86.9796 26.0924V25.0412L92.5531 27.8406V28.5021L86.9796 30.9708V29.9196Z" fill="white"/>
</g>
<path d="M12.4368 65H10.3508V55.004H16.0768V56.74H12.4368V59.316H15.8248V61.052H12.4368V65ZM24.8804 57.356V65H23.2844L23.0044 64.02H22.8924C22.7337 64.2813 22.5284 64.496 22.2764 64.664C22.0337 64.8227 21.7631 64.9393 21.4644 65.014C21.1657 65.098 20.8577 65.14 20.5404 65.14C19.9991 65.14 19.5231 65.042 19.1124 64.846C18.7017 64.65 18.3844 64.3467 18.1604 63.936C17.9364 63.5253 17.8244 62.9933 17.8244 62.34V57.356H19.9104V61.822C19.9104 62.3633 20.0084 62.774 20.2044 63.054C20.4004 63.334 20.7131 63.474 21.1424 63.474C21.5717 63.474 21.9031 63.376 22.1364 63.18C22.3791 62.984 22.5471 62.6993 22.6404 62.326C22.7431 61.9527 22.7944 61.4953 22.7944 60.954V57.356H24.8804ZM29.1536 65H27.0676V54.36H29.1536V65ZM33.4192 65H31.3332V54.36H33.4192V65ZM45.2976 62.228C45.2976 62.816 45.1529 63.3293 44.8636 63.768C44.5742 64.2067 44.1542 64.5473 43.6036 64.79C43.0622 65.0233 42.3996 65.14 41.6156 65.14C41.2702 65.14 40.9296 65.1167 40.5936 65.07C40.2669 65.0233 39.9496 64.958 39.6416 64.874C39.3429 64.7807 39.0582 64.6687 38.7876 64.538V62.564C39.2636 62.7693 39.7536 62.9607 40.2576 63.138C40.7709 63.306 41.2796 63.39 41.7836 63.39C42.1289 63.39 42.4042 63.3433 42.6096 63.25C42.8242 63.1567 42.9782 63.0307 43.0716 62.872C43.1742 62.7133 43.2256 62.5313 43.2256 62.326C43.2256 62.074 43.1369 61.8593 42.9596 61.682C42.7916 61.5047 42.5629 61.3413 42.2736 61.192C41.9842 61.0333 41.6529 60.8653 41.2796 60.688C41.0462 60.576 40.7942 60.4453 40.5236 60.296C40.2529 60.1373 39.9916 59.946 39.7396 59.722C39.4969 59.4887 39.2962 59.2087 39.1376 58.882C38.9789 58.5553 38.8996 58.1633 38.8996 57.706C38.8996 57.1087 39.0349 56.6 39.3056 56.18C39.5856 55.7507 39.9776 55.424 40.4816 55.2C40.9949 54.976 41.5969 54.864 42.2876 54.864C42.8102 54.864 43.3049 54.9247 43.7716 55.046C44.2476 55.1673 44.7422 55.34 45.2556 55.564L44.5696 57.216C44.1122 57.0293 43.7016 56.8847 43.3376 56.782C42.9736 56.6793 42.6002 56.628 42.2176 56.628C41.9562 56.628 41.7322 56.67 41.5456 56.754C41.3589 56.838 41.2142 56.9547 41.1116 57.104C41.0182 57.2533 40.9716 57.4307 40.9716 57.636C40.9716 57.8693 41.0416 58.07 41.1816 58.238C41.3216 58.3967 41.5316 58.5507 41.8116 58.7C42.0916 58.8493 42.4416 59.0267 42.8616 59.232C43.3749 59.4747 43.8089 59.7267 44.1636 59.988C44.5276 60.2493 44.8076 60.5573 45.0036 60.912C45.1996 61.2667 45.2976 61.7053 45.2976 62.228ZM50.1665 63.474C50.3998 63.474 50.6238 63.4507 50.8385 63.404C51.0532 63.3573 51.2678 63.3013 51.4825 63.236V64.79C51.2585 64.8833 50.9785 64.9627 50.6425 65.028C50.3158 65.1027 49.9565 65.14 49.5645 65.14C49.1072 65.14 48.6965 65.0653 48.3325 64.916C47.9778 64.7667 47.6932 64.51 47.4785 64.146C47.2732 63.7727 47.1705 63.2593 47.1705 62.606V58.924H46.1765V58.042L47.3245 57.342L47.9265 55.732H49.2565V57.356H51.3985V58.924H49.2565V62.606C49.2565 62.8953 49.3405 63.1147 49.5085 63.264C49.6765 63.404 49.8958 63.474 50.1665 63.474ZM56.1528 57.202C57.1795 57.202 57.9635 57.426 58.5048 57.874C59.0555 58.3127 59.3308 58.9893 59.3308 59.904V65H57.8748L57.4688 63.964H57.4128C57.1981 64.2347 56.9741 64.4587 56.7408 64.636C56.5168 64.8133 56.2555 64.9393 55.9568 65.014C55.6675 65.098 55.3081 65.14 54.8788 65.14C54.4308 65.14 54.0248 65.056 53.6608 64.888C53.3061 64.7107 53.0261 64.4447 52.8208 64.09C52.6155 63.726 52.5128 63.2687 52.5128 62.718C52.5128 61.906 52.7975 61.3087 53.3668 60.926C53.9361 60.534 54.7901 60.3193 55.9288 60.282L57.2588 60.24V59.904C57.2588 59.5027 57.1515 59.2087 56.9368 59.022C56.7315 58.8353 56.4421 58.742 56.0688 58.742C55.6955 58.742 55.3315 58.798 54.9768 58.91C54.6221 59.0127 54.2675 59.1433 53.9128 59.302L53.2268 57.888C53.6375 57.6733 54.0901 57.5053 54.5848 57.384C55.0888 57.2627 55.6115 57.202 56.1528 57.202ZM56.4468 61.486C55.7748 61.5047 55.3081 61.626 55.0468 61.85C54.7855 62.074 54.6548 62.368 54.6548 62.732C54.6548 63.0493 54.7481 63.278 54.9348 63.418C55.1215 63.5487 55.3641 63.614 55.6628 63.614C56.1108 63.614 56.4888 63.4833 56.7968 63.222C57.1048 62.9513 57.2588 62.5733 57.2588 62.088V61.458L56.4468 61.486ZM64.574 65.14C63.818 65.14 63.174 65.0047 62.642 64.734C62.11 64.454 61.704 64.0247 61.424 63.446C61.144 62.8673 61.004 62.1253 61.004 61.22C61.004 60.2867 61.1627 59.526 61.48 58.938C61.7974 58.35 62.236 57.916 62.796 57.636C63.3654 57.356 64.0187 57.216 64.756 57.216C65.2787 57.216 65.7314 57.2673 66.114 57.37C66.506 57.4727 66.8467 57.594 67.136 57.734L66.52 59.344C66.1934 59.2133 65.8854 59.106 65.596 59.022C65.316 58.938 65.036 58.896 64.756 58.896C64.392 58.896 64.0887 58.9847 63.846 59.162C63.6034 59.33 63.4214 59.5867 63.3 59.932C63.188 60.268 63.132 60.6927 63.132 61.206C63.132 61.71 63.1927 62.13 63.314 62.466C63.4447 62.7927 63.6314 63.04 63.874 63.208C64.1167 63.3667 64.4107 63.446 64.756 63.446C65.1947 63.446 65.582 63.39 65.918 63.278C66.254 63.1567 66.5807 62.9933 66.898 62.788V64.566C66.5807 64.7713 66.2447 64.916 65.89 65C65.5447 65.0933 65.106 65.14 64.574 65.14ZM70.7434 59.12C70.7434 59.4093 70.7294 59.6987 70.7014 59.988C70.6828 60.268 70.6594 60.5527 70.6314 60.842H70.6594C70.7528 60.7113 70.8461 60.5807 70.9394 60.45C71.0421 60.3193 71.1448 60.1887 71.2474 60.058C71.3501 59.9273 71.4574 59.8013 71.5694 59.68L73.7114 57.356H76.0634L73.0254 60.674L76.2454 65H73.8374L71.6394 61.906L70.7434 62.62V65H68.6574V54.36H70.7434V59.12ZM89.4318 59.904C89.4318 61.024 89.2171 61.962 88.7878 62.718C88.3585 63.474 87.7331 64.0433 86.9118 64.426C86.0998 64.8087 85.1198 65 83.9718 65H81.1438V55.004H84.2798C85.3251 55.004 86.2305 55.1907 86.9958 55.564C87.7705 55.9373 88.3678 56.488 88.7878 57.216C89.2171 57.9347 89.4318 58.8307 89.4318 59.904ZM87.2338 59.96C87.2338 59.2227 87.1265 58.616 86.9118 58.14C86.6971 57.664 86.3751 57.314 85.9458 57.09C85.5258 56.8567 85.0078 56.74 84.3918 56.74H83.2578V63.25H84.1678C85.2038 63.25 85.9738 62.9747 86.4778 62.424C86.9818 61.8733 87.2338 61.052 87.2338 59.96ZM94.4891 57.216C95.1984 57.216 95.8051 57.3513 96.3091 57.622C96.8224 57.8927 97.2191 58.2847 97.4991 58.798C97.7791 59.3113 97.9191 59.9413 97.9191 60.688V61.696H92.9911C93.0097 62.284 93.1824 62.746 93.5091 63.082C93.8451 63.418 94.3071 63.586 94.8951 63.586C95.3897 63.586 95.8377 63.5393 96.2391 63.446C96.6404 63.3433 97.0557 63.1893 97.4851 62.984V64.594C97.1117 64.7807 96.7151 64.916 96.2951 65C95.8844 65.0933 95.3851 65.14 94.7971 65.14C94.0317 65.14 93.3551 65 92.7671 64.72C92.1791 64.4307 91.7171 63.9967 91.3811 63.418C91.0451 62.8393 90.8771 62.1113 90.8771 61.234C90.8771 60.338 91.0264 59.596 91.3251 59.008C91.6331 58.4107 92.0577 57.9627 92.5991 57.664C93.1404 57.3653 93.7704 57.216 94.4891 57.216ZM94.5031 58.7C94.1017 58.7 93.7657 58.8307 93.4951 59.092C93.2337 59.3533 93.0797 59.7593 93.0331 60.31H95.9591C95.9591 60.002 95.9031 59.7267 95.7911 59.484C95.6884 59.2413 95.5297 59.05 95.3151 58.91C95.1004 58.77 94.8297 58.7 94.5031 58.7ZM101.157 65L98.2451 57.356H100.429L101.899 61.71C101.955 61.878 102.002 62.0553 102.039 62.242C102.086 62.4287 102.118 62.6107 102.137 62.788C102.165 62.9653 102.184 63.1287 102.193 63.278H102.249C102.258 63.1193 102.277 62.9513 102.305 62.774C102.333 62.5967 102.366 62.4193 102.403 62.242C102.45 62.0553 102.501 61.878 102.557 61.71L104.027 57.356H106.211L103.299 65H101.157ZM110.458 57.216C111.167 57.216 111.774 57.3513 112.278 57.622C112.791 57.8927 113.188 58.2847 113.468 58.798C113.748 59.3113 113.888 59.9413 113.888 60.688V61.696H108.96C108.978 62.284 109.151 62.746 109.478 63.082C109.814 63.418 110.276 63.586 110.864 63.586C111.358 63.586 111.806 63.5393 112.208 63.446C112.609 63.3433 113.024 63.1893 113.454 62.984V64.594C113.08 64.7807 112.684 64.916 112.264 65C111.853 65.0933 111.354 65.14 110.766 65.14C110 65.14 109.324 65 108.736 64.72C108.148 64.4307 107.686 63.9967 107.35 63.418C107.014 62.8393 106.846 62.1113 106.846 61.234C106.846 60.338 106.995 59.596 107.294 59.008C107.602 58.4107 108.026 57.9627 108.568 57.664C109.109 57.3653 109.739 57.216 110.458 57.216ZM110.472 58.7C110.07 58.7 109.734 58.8307 109.464 59.092C109.202 59.3533 109.048 59.7593 109.002 60.31H111.928C111.928 60.002 111.872 59.7267 111.76 59.484C111.657 59.2413 111.498 59.05 111.284 58.91C111.069 58.77 110.798 58.7 110.472 58.7ZM117.665 65H115.579V54.36H117.665V65ZM126.789 61.164C126.789 61.7987 126.7 62.3633 126.523 62.858C126.355 63.3527 126.108 63.7727 125.781 64.118C125.464 64.454 125.076 64.7107 124.619 64.888C124.162 65.056 123.644 65.14 123.065 65.14C122.533 65.14 122.038 65.056 121.581 64.888C121.133 64.7107 120.746 64.454 120.419 64.118C120.092 63.7727 119.836 63.3527 119.649 62.858C119.472 62.3633 119.383 61.7987 119.383 61.164C119.383 60.3147 119.532 59.6007 119.831 59.022C120.13 58.434 120.559 57.986 121.119 57.678C121.679 57.37 122.342 57.216 123.107 57.216C123.826 57.216 124.46 57.37 125.011 57.678C125.562 57.986 125.996 58.434 126.313 59.022C126.63 59.6007 126.789 60.3147 126.789 61.164ZM121.511 61.164C121.511 61.668 121.562 62.0927 121.665 62.438C121.777 62.774 121.95 63.0307 122.183 63.208C122.416 63.376 122.72 63.46 123.093 63.46C123.466 63.46 123.765 63.376 123.989 63.208C124.222 63.0307 124.39 62.774 124.493 62.438C124.605 62.0927 124.661 61.668 124.661 61.164C124.661 60.66 124.605 60.24 124.493 59.904C124.39 59.568 124.222 59.316 123.989 59.148C123.756 58.98 123.452 58.896 123.079 58.896C122.528 58.896 122.127 59.0873 121.875 59.47C121.632 59.8433 121.511 60.408 121.511 61.164ZM132.769 57.216C133.628 57.216 134.323 57.552 134.855 58.224C135.387 58.8867 135.653 59.8667 135.653 61.164C135.653 62.032 135.527 62.7647 135.275 63.362C135.023 63.95 134.678 64.3933 134.239 64.692C133.8 64.9907 133.292 65.14 132.713 65.14C132.349 65.14 132.032 65.0933 131.761 65C131.5 64.9067 131.276 64.7853 131.089 64.636C130.902 64.4867 130.739 64.328 130.599 64.16H130.487C130.524 64.3373 130.552 64.524 130.571 64.72C130.59 64.9067 130.599 65.0933 130.599 65.28V68.36H128.513V57.356H130.207L130.501 58.35H130.599C130.739 58.1447 130.907 57.958 131.103 57.79C131.299 57.6127 131.532 57.4727 131.803 57.37C132.083 57.2673 132.405 57.216 132.769 57.216ZM132.097 58.882C131.733 58.882 131.444 58.9567 131.229 59.106C131.014 59.2553 130.856 59.484 130.753 59.792C130.66 60.0907 130.608 60.4687 130.599 60.926V61.15C130.599 61.6447 130.646 62.0647 130.739 62.41C130.832 62.746 130.991 63.0027 131.215 63.18C131.439 63.3573 131.742 63.446 132.125 63.446C132.442 63.446 132.704 63.3573 132.909 63.18C133.114 63.0027 133.268 62.7413 133.371 62.396C133.474 62.0507 133.525 61.6307 133.525 61.136C133.525 60.3893 133.408 59.8293 133.175 59.456C132.951 59.0733 132.592 58.882 132.097 58.882ZM140.522 57.216C141.232 57.216 141.838 57.3513 142.342 57.622C142.856 57.8927 143.252 58.2847 143.532 58.798C143.812 59.3113 143.952 59.9413 143.952 60.688V61.696H139.024C139.043 62.284 139.216 62.746 139.542 63.082C139.878 63.418 140.34 63.586 140.928 63.586C141.423 63.586 141.871 63.5393 142.272 63.446C142.674 63.3433 143.089 63.1893 143.518 62.984V64.594C143.145 64.7807 142.748 64.916 142.328 65C141.918 65.0933 141.418 65.14 140.83 65.14C140.065 65.14 139.388 65 138.8 64.72C138.212 64.4307 137.75 63.9967 137.414 63.418C137.078 62.8393 136.91 62.1113 136.91 61.234C136.91 60.338 137.06 59.596 137.358 59.008C137.666 58.4107 138.091 57.9627 138.632 57.664C139.174 57.3653 139.804 57.216 140.522 57.216ZM140.536 58.7C140.135 58.7 139.799 58.8307 139.528 59.092C139.267 59.3533 139.113 59.7593 139.066 60.31H141.992C141.992 60.002 141.936 59.7267 141.824 59.484C141.722 59.2413 141.563 59.05 141.348 58.91C141.134 58.77 140.863 58.7 140.536 58.7ZM149.914 57.216C150.016 57.216 150.138 57.2207 150.278 57.23C150.418 57.2393 150.53 57.2533 150.614 57.272L150.46 59.232C150.394 59.2133 150.296 59.1993 150.166 59.19C150.044 59.1713 149.937 59.162 149.844 59.162C149.573 59.162 149.312 59.1993 149.06 59.274C148.808 59.3393 148.579 59.4467 148.374 59.596C148.178 59.7453 148.019 59.946 147.898 60.198C147.786 60.4407 147.73 60.744 147.73 61.108V65H145.644V57.356H147.226L147.534 58.644H147.632C147.781 58.3827 147.968 58.1447 148.192 57.93C148.416 57.7153 148.672 57.5427 148.962 57.412C149.26 57.2813 149.578 57.216 149.914 57.216Z" fill="white"/>
<defs>
<clipPath id="clip0_1148_29600">
<rect width="42" height="42" fill="white" transform="translate(59)"/>
</clipPath>
</defs>
</svg>
