<svg width="164" height="71" viewBox="0 0 164 71" fill="none" xmlns="http://www.w3.org/2000/svg">
<g clip-path="url(#clip0_1148_29596)">
<path d="M96 16.5H91.0825C90.295 15.135 89.21 13.9625 87.8975 13.07L90.75 10.2175L88.2825 7.75L84.485 11.5475C83.68 11.355 82.8575 11.25 82 11.25C81.1425 11.25 80.32 11.355 79.5325 11.5475L75.7175 7.75L73.25 10.2175L76.085 13.07C74.79 13.9625 73.705 15.135 72.9175 16.5H68V20H71.6575C71.57 20.5775 71.5 21.155 71.5 21.75V23.5H68V27H71.5V28.75C71.5 29.345 71.57 29.9225 71.6575 30.5H68V34H72.9175C74.7375 37.1325 78.115 39.25 82 39.25C85.885 39.25 89.2625 37.1325 91.0825 34H96V30.5H92.3425C92.43 29.9225 92.5 29.345 92.5 28.75V27H96V23.5H92.5V21.75C92.5 21.155 92.43 20.5775 92.3425 20H96V16.5ZM85.5 30.5H78.5V27H85.5V30.5ZM85.5 23.5H78.5V20H85.5V23.5Z" fill="white"/>
</g>
<path d="M37.9521 62.488C37.9521 63.2347 37.8635 63.916 37.6861 64.532C37.5088 65.148 37.2381 65.6847 36.8741 66.142C36.5101 66.59 36.0481 66.94 35.4881 67.192L37.8961 69.88H35.1801L33.3461 67.64C33.3181 67.64 33.2901 67.64 33.2621 67.64C33.2435 67.64 33.2201 67.64 33.1921 67.64C32.3801 67.64 31.6708 67.5187 31.0641 67.276C30.4668 67.024 29.9721 66.674 29.5801 66.226C29.1975 65.7687 28.9081 65.2227 28.7121 64.588C28.5255 63.9533 28.4321 63.2487 28.4321 62.474C28.4321 61.438 28.6001 60.5373 28.9361 59.772C29.2815 59.0067 29.8041 58.414 30.5041 57.994C31.2135 57.5647 32.1141 57.35 33.2061 57.35C34.2888 57.35 35.1801 57.5647 35.8801 57.994C36.5801 58.414 37.0981 59.0113 37.4341 59.786C37.7795 60.5513 37.9521 61.452 37.9521 62.488ZM30.6581 62.488C30.6581 63.188 30.7468 63.79 30.9241 64.294C31.1015 64.798 31.3768 65.1853 31.7501 65.456C32.1235 65.7267 32.6041 65.862 33.1921 65.862C33.7988 65.862 34.2841 65.7267 34.6481 65.456C35.0215 65.1853 35.2921 64.798 35.4601 64.294C35.6375 63.79 35.7261 63.188 35.7261 62.488C35.7261 61.4333 35.5301 60.6073 35.1381 60.01C34.7461 59.4127 34.1021 59.114 33.2061 59.114C32.6088 59.114 32.1235 59.2493 31.7501 59.52C31.3768 59.7907 31.1015 60.178 30.9241 60.682C30.7468 61.186 30.6581 61.788 30.6581 62.488ZM45.8673 67.5L45.1393 65.12H41.4993L40.7713 67.5H38.4893L42.0173 57.462H44.6073L48.1493 67.5H45.8673ZM43.9073 61.018C43.8606 60.8593 43.7999 60.6587 43.7253 60.416C43.6506 60.1733 43.5759 59.926 43.5013 59.674C43.4266 59.422 43.3659 59.2027 43.3193 59.016C43.2726 59.2027 43.2073 59.436 43.1233 59.716C43.0486 59.9867 42.9739 60.248 42.8993 60.5C42.8339 60.7427 42.7826 60.9153 42.7453 61.018L42.0313 63.342H44.6353L43.9073 61.018ZM58.806 67.5H53.052V57.504H58.806V59.24H55.166V61.438H58.554V63.174H55.166V65.75H58.806V67.5ZM65.058 59.716C65.8793 59.716 66.5373 59.94 67.032 60.388C67.5266 60.8267 67.774 61.536 67.774 62.516V67.5H65.688V63.034C65.688 62.4833 65.59 62.0727 65.394 61.802C65.198 61.522 64.8853 61.382 64.456 61.382C63.8213 61.382 63.3873 61.6013 63.154 62.04C62.9206 62.4693 62.804 63.09 62.804 63.902V67.5H60.718V59.856H62.314L62.594 60.836H62.706C62.874 60.5747 63.0793 60.3647 63.322 60.206C63.5646 60.038 63.8353 59.9167 64.134 59.842C64.4326 59.758 64.7406 59.716 65.058 59.716ZM72.3971 59.716C72.8638 59.716 73.2838 59.8093 73.6571 59.996C74.0305 60.1827 74.3478 60.4627 74.6091 60.836H74.6651L74.8331 59.856H76.5971V67.514C76.5971 68.242 76.4525 68.8533 76.1631 69.348C75.8831 69.8427 75.4585 70.216 74.8891 70.468C74.3198 70.7293 73.6151 70.86 72.7751 70.86C72.2338 70.86 71.7298 70.8273 71.2631 70.762C70.8058 70.6967 70.3578 70.58 69.9191 70.412V68.746C70.2365 68.8767 70.5538 68.984 70.8711 69.068C71.1978 69.1613 71.5291 69.2267 71.8651 69.264C72.2105 69.3107 72.5558 69.334 72.9011 69.334C73.4425 69.334 73.8438 69.1893 74.1051 68.9C74.3758 68.6107 74.5111 68.1767 74.5111 67.598V67.444C74.5111 67.2853 74.5158 67.122 74.5251 66.954C74.5438 66.786 74.5578 66.6367 74.5671 66.506H74.5111C74.2498 66.9073 73.9371 67.1967 73.5731 67.374C73.2091 67.5513 72.7985 67.64 72.3411 67.64C71.4358 67.64 70.7265 67.2947 70.2131 66.604C69.7091 65.904 69.4571 64.9333 69.4571 63.692C69.4571 62.852 69.5738 62.138 69.8071 61.55C70.0405 60.9527 70.3765 60.5 70.8151 60.192C71.2631 59.8747 71.7905 59.716 72.3971 59.716ZM73.0551 61.41C72.7285 61.41 72.4531 61.4987 72.2291 61.676C72.0145 61.844 71.8511 62.1007 71.7391 62.446C71.6365 62.782 71.5851 63.2067 71.5851 63.72C71.5851 64.4853 71.7065 65.0593 71.9491 65.442C72.1918 65.8153 72.5698 66.002 73.0831 66.002C73.3538 66.002 73.5871 65.9693 73.7831 65.904C73.9791 65.8293 74.1378 65.7127 74.2591 65.554C74.3898 65.386 74.4878 65.1713 74.5531 64.91C74.6185 64.6487 74.6511 64.3313 74.6511 63.958V63.706C74.6511 63.1553 74.5951 62.712 74.4831 62.376C74.3711 62.04 74.1985 61.7973 73.9651 61.648C73.7318 61.4893 73.4285 61.41 73.0551 61.41ZM80.8645 59.856V67.5H78.7785V59.856H80.8645ZM79.8285 56.86C80.1365 56.86 80.4025 56.9347 80.6265 57.084C80.8505 57.224 80.9625 57.49 80.9625 57.882C80.9625 58.2647 80.8505 58.5307 80.6265 58.68C80.4025 58.8293 80.1365 58.904 79.8285 58.904C79.5112 58.904 79.2405 58.8293 79.0165 58.68C78.8019 58.5307 78.6945 58.2647 78.6945 57.882C78.6945 57.49 78.8019 57.224 79.0165 57.084C79.2405 56.9347 79.5112 56.86 79.8285 56.86ZM87.3841 59.716C88.2055 59.716 88.8635 59.94 89.3581 60.388C89.8528 60.8267 90.1001 61.536 90.1001 62.516V67.5H88.0141V63.034C88.0141 62.4833 87.9161 62.0727 87.7201 61.802C87.5241 61.522 87.2115 61.382 86.7821 61.382C86.1475 61.382 85.7135 61.6013 85.4801 62.04C85.2468 62.4693 85.1301 63.09 85.1301 63.902V67.5H83.0441V59.856H84.6401L84.9201 60.836H85.0321C85.2001 60.5747 85.4055 60.3647 85.6481 60.206C85.8908 60.038 86.1615 59.9167 86.4601 59.842C86.7588 59.758 87.0668 59.716 87.3841 59.716ZM95.3953 59.716C96.1047 59.716 96.7113 59.8513 97.2153 60.122C97.7287 60.3927 98.1253 60.7847 98.4053 61.298C98.6853 61.8113 98.8253 62.4413 98.8253 63.188V64.196H93.8973C93.916 64.784 94.0887 65.246 94.4153 65.582C94.7513 65.918 95.2133 66.086 95.8013 66.086C96.296 66.086 96.744 66.0393 97.1453 65.946C97.5467 65.8433 97.962 65.6893 98.3913 65.484V67.094C98.018 67.2807 97.6213 67.416 97.2013 67.5C96.7907 67.5933 96.2913 67.64 95.7033 67.64C94.938 67.64 94.2613 67.5 93.6733 67.22C93.0853 66.9307 92.6233 66.4967 92.2873 65.918C91.9513 65.3393 91.7833 64.6113 91.7833 63.734C91.7833 62.838 91.9327 62.096 92.2313 61.508C92.5393 60.9107 92.964 60.4627 93.5053 60.164C94.0467 59.8653 94.6767 59.716 95.3953 59.716ZM95.4093 61.2C95.008 61.2 94.672 61.3307 94.4013 61.592C94.14 61.8533 93.986 62.2593 93.9393 62.81H96.8653C96.8653 62.502 96.8093 62.2267 96.6973 61.984C96.5947 61.7413 96.436 61.55 96.2213 61.41C96.0067 61.27 95.736 61.2 95.4093 61.2ZM103.667 59.716C104.376 59.716 104.983 59.8513 105.487 60.122C106 60.3927 106.397 60.7847 106.677 61.298C106.957 61.8113 107.097 62.4413 107.097 63.188V64.196H102.169C102.187 64.784 102.36 65.246 102.687 65.582C103.023 65.918 103.485 66.086 104.073 66.086C104.567 66.086 105.015 66.0393 105.417 65.946C105.818 65.8433 106.233 65.6893 106.663 65.484V67.094C106.289 67.2807 105.893 67.416 105.473 67.5C105.062 67.5933 104.563 67.64 103.975 67.64C103.209 67.64 102.533 67.5 101.945 67.22C101.357 66.9307 100.895 66.4967 100.559 65.918C100.223 65.3393 100.055 64.6113 100.055 63.734C100.055 62.838 100.204 62.096 100.503 61.508C100.811 60.9107 101.235 60.4627 101.777 60.164C102.318 59.8653 102.948 59.716 103.667 59.716ZM103.681 61.2C103.279 61.2 102.943 61.3307 102.673 61.592C102.411 61.8533 102.257 62.2593 102.211 62.81H105.137C105.137 62.502 105.081 62.2267 104.969 61.984C104.866 61.7413 104.707 61.55 104.493 61.41C104.278 61.27 104.007 61.2 103.681 61.2ZM113.058 59.716C113.161 59.716 113.282 59.7207 113.422 59.73C113.562 59.7393 113.674 59.7533 113.758 59.772L113.604 61.732C113.539 61.7133 113.441 61.6993 113.31 61.69C113.189 61.6713 113.082 61.662 112.988 61.662C112.718 61.662 112.456 61.6993 112.204 61.774C111.952 61.8393 111.724 61.9467 111.518 62.096C111.322 62.2453 111.164 62.446 111.042 62.698C110.93 62.9407 110.874 63.244 110.874 63.608V67.5H108.788V59.856H110.37L110.678 61.144H110.776C110.926 60.8827 111.112 60.6447 111.336 60.43C111.56 60.2153 111.817 60.0427 112.106 59.912C112.405 59.7813 112.722 59.716 113.058 59.716ZM117.232 59.856V67.5H115.146V59.856H117.232ZM116.196 56.86C116.504 56.86 116.77 56.9347 116.994 57.084C117.218 57.224 117.33 57.49 117.33 57.882C117.33 58.2647 117.218 58.5307 116.994 58.68C116.77 58.8293 116.504 58.904 116.196 58.904C115.878 58.904 115.608 58.8293 115.384 58.68C115.169 58.5307 115.062 58.2647 115.062 57.882C115.062 57.49 115.169 57.224 115.384 57.084C115.608 56.9347 115.878 56.86 116.196 56.86ZM123.751 59.716C124.573 59.716 125.231 59.94 125.725 60.388C126.22 60.8267 126.467 61.536 126.467 62.516V67.5H124.381V63.034C124.381 62.4833 124.283 62.0727 124.087 61.802C123.891 61.522 123.579 61.382 123.149 61.382C122.515 61.382 122.081 61.6013 121.847 62.04C121.614 62.4693 121.497 63.09 121.497 63.902V67.5H119.411V59.856H121.007L121.287 60.836H121.399C121.567 60.5747 121.773 60.3647 122.015 60.206C122.258 60.038 122.529 59.9167 122.827 59.842C123.126 59.758 123.434 59.716 123.751 59.716ZM131.091 59.716C131.557 59.716 131.977 59.8093 132.351 59.996C132.724 60.1827 133.041 60.4627 133.303 60.836H133.359L133.527 59.856H135.291V67.514C135.291 68.242 135.146 68.8533 134.857 69.348C134.577 69.8427 134.152 70.216 133.583 70.468C133.013 70.7293 132.309 70.86 131.469 70.86C130.927 70.86 130.423 70.8273 129.957 70.762C129.499 70.6967 129.051 70.58 128.613 70.412V68.746C128.93 68.8767 129.247 68.984 129.565 69.068C129.891 69.1613 130.223 69.2267 130.559 69.264C130.904 69.3107 131.249 69.334 131.595 69.334C132.136 69.334 132.537 69.1893 132.799 68.9C133.069 68.6107 133.205 68.1767 133.205 67.598V67.444C133.205 67.2853 133.209 67.122 133.219 66.954C133.237 66.786 133.251 66.6367 133.261 66.506H133.205C132.943 66.9073 132.631 67.1967 132.267 67.374C131.903 67.5513 131.492 67.64 131.035 67.64C130.129 67.64 129.42 67.2947 128.907 66.604C128.403 65.904 128.151 64.9333 128.151 63.692C128.151 62.852 128.267 62.138 128.501 61.55C128.734 60.9527 129.07 60.5 129.509 60.192C129.957 59.8747 130.484 59.716 131.091 59.716ZM131.749 61.41C131.422 61.41 131.147 61.4987 130.923 61.676C130.708 61.844 130.545 62.1007 130.433 62.446C130.33 62.782 130.279 63.2067 130.279 63.72C130.279 64.4853 130.4 65.0593 130.643 65.442C130.885 65.8153 131.263 66.002 131.777 66.002C132.047 66.002 132.281 65.9693 132.477 65.904C132.673 65.8293 132.831 65.7127 132.953 65.554C133.083 65.386 133.181 65.1713 133.247 64.91C133.312 64.6487 133.345 64.3313 133.345 63.958V63.706C133.345 63.1553 133.289 62.712 133.177 62.376C133.065 62.04 132.892 61.7973 132.659 61.648C132.425 61.4893 132.122 61.41 131.749 61.41Z" fill="white"/>
<defs>
<clipPath id="clip0_1148_29596">
<rect width="42" height="42" fill="white" transform="translate(61 2.5)"/>
</clipPath>
</defs>
</svg>
