<svg width="171" height="71" viewBox="0 0 171 71" fill="none" xmlns="http://www.w3.org/2000/svg">
<g clip-path="url(#clip0_1148_29597)">
<path d="M74.4304 17.305L68.3645 23.5L74.4304 29.695L77.4463 26.5975L74.4304 23.5L77.4463 20.4025L74.4304 17.305ZM96.5694 17.305L93.5536 20.4025L96.5694 23.5L93.5536 26.5975L96.5694 29.695L102.635 23.5L96.5694 17.305ZM85.4999 34.805L82.4669 31.725L79.434 34.805L85.4999 41L91.5659 34.805L88.5329 31.725L85.4999 34.805ZM79.434 12.195L82.4669 15.275L85.4999 12.195L88.5329 15.275L91.5659 12.195L85.4999 6L79.434 12.195Z" fill="white"/>
<path d="M85.5 28.75C88.3391 28.75 90.6406 26.3995 90.6406 23.5C90.6406 20.6005 88.3391 18.25 85.5 18.25C82.6609 18.25 80.3594 20.6005 80.3594 23.5C80.3594 26.3995 82.6609 28.75 85.5 28.75Z" fill="white"/>
</g>
<path d="M16.5956 57.504C17.8836 57.504 18.8216 57.784 19.4096 58.344C20.0069 58.8947 20.3056 59.6553 20.3056 60.626C20.3056 61.0647 20.2402 61.4847 20.1096 61.886C19.9789 62.278 19.7596 62.6327 19.4516 62.95C19.1529 63.258 18.7562 63.5007 18.2616 63.678C17.7669 63.8553 17.1556 63.944 16.4276 63.944H15.5176V67.5H13.4036V57.504H16.5956ZM16.4836 59.24H15.5176V62.208H16.2176C16.6189 62.208 16.9642 62.1567 17.2536 62.054C17.5429 61.9513 17.7669 61.788 17.9256 61.564C18.0842 61.34 18.1636 61.0507 18.1636 60.696C18.1636 60.2013 18.0282 59.8373 17.7576 59.604C17.4869 59.3613 17.0622 59.24 16.4836 59.24ZM26.2966 59.716C26.3992 59.716 26.5206 59.7207 26.6606 59.73C26.8006 59.7393 26.9126 59.7533 26.9966 59.772L26.8426 61.732C26.7772 61.7133 26.6792 61.6993 26.5486 61.69C26.4272 61.6713 26.3199 61.662 26.2266 61.662C25.9559 61.662 25.6946 61.6993 25.4426 61.774C25.1906 61.8393 24.9619 61.9467 24.7566 62.096C24.5606 62.2453 24.4019 62.446 24.2806 62.698C24.1686 62.9407 24.1126 63.244 24.1126 63.608V67.5H22.0266V59.856H23.6086L23.9166 61.144H24.0146C24.1639 60.8827 24.3506 60.6447 24.5746 60.43C24.7986 60.2153 25.0552 60.0427 25.3446 59.912C25.6432 59.7813 25.9606 59.716 26.2966 59.716ZM35.0546 63.664C35.0546 64.2987 34.9659 64.8633 34.7886 65.358C34.6206 65.8527 34.3732 66.2727 34.0466 66.618C33.7292 66.954 33.3419 67.2107 32.8846 67.388C32.4272 67.556 31.9092 67.64 31.3306 67.64C30.7986 67.64 30.3039 67.556 29.8466 67.388C29.3986 67.2107 29.0112 66.954 28.6846 66.618C28.3579 66.2727 28.1012 65.8527 27.9146 65.358C27.7372 64.8633 27.6486 64.2987 27.6486 63.664C27.6486 62.8147 27.7979 62.1007 28.0966 61.522C28.3952 60.934 28.8246 60.486 29.3846 60.178C29.9446 59.87 30.6072 59.716 31.3726 59.716C32.0912 59.716 32.7259 59.87 33.2766 60.178C33.8272 60.486 34.2612 60.934 34.5786 61.522C34.8959 62.1007 35.0546 62.8147 35.0546 63.664ZM29.7766 63.664C29.7766 64.168 29.8279 64.5927 29.9306 64.938C30.0426 65.274 30.2152 65.5307 30.4486 65.708C30.6819 65.876 30.9852 65.96 31.3586 65.96C31.7319 65.96 32.0306 65.876 32.2546 65.708C32.4879 65.5307 32.6559 65.274 32.7586 64.938C32.8706 64.5927 32.9266 64.168 32.9266 63.664C32.9266 63.16 32.8706 62.74 32.7586 62.404C32.6559 62.068 32.4879 61.816 32.2546 61.648C32.0212 61.48 31.7179 61.396 31.3446 61.396C30.7939 61.396 30.3926 61.5873 30.1406 61.97C29.8979 62.3433 29.7766 62.908 29.7766 63.664ZM36.1625 70.86C35.9292 70.86 35.6865 70.8413 35.4345 70.804C35.1732 70.776 34.9585 70.7387 34.7905 70.692V69.054C34.9585 69.0913 35.1172 69.1193 35.2665 69.138C35.4159 69.166 35.5839 69.18 35.7705 69.18C36.0505 69.18 36.2885 69.1007 36.4845 68.942C36.6805 68.7833 36.7785 68.4753 36.7785 68.018V59.856H38.8645V68.326C38.8645 68.7927 38.7759 69.2173 38.5985 69.6C38.4212 69.9827 38.1319 70.286 37.7305 70.51C37.3385 70.7433 36.8159 70.86 36.1625 70.86ZM36.6945 57.882C36.6945 57.49 36.8019 57.224 37.0165 57.084C37.2405 56.9347 37.5112 56.86 37.8285 56.86C38.1365 56.86 38.4025 56.9347 38.6265 57.084C38.8505 57.224 38.9625 57.49 38.9625 57.882C38.9625 58.2647 38.8505 58.5307 38.6265 58.68C38.4025 58.8293 38.1365 58.904 37.8285 58.904C37.5112 58.904 37.2405 58.8293 37.0165 58.68C36.8019 58.5307 36.6945 58.2647 36.6945 57.882ZM44.1941 59.716C44.9035 59.716 45.5101 59.8513 46.0141 60.122C46.5275 60.3927 46.9241 60.7847 47.2041 61.298C47.4841 61.8113 47.6241 62.4413 47.6241 63.188V64.196H42.6961C42.7148 64.784 42.8875 65.246 43.2141 65.582C43.5501 65.918 44.0121 66.086 44.6001 66.086C45.0948 66.086 45.5428 66.0393 45.9441 65.946C46.3455 65.8433 46.7608 65.6893 47.1901 65.484V67.094C46.8168 67.2807 46.4201 67.416 46.0001 67.5C45.5895 67.5933 45.0901 67.64 44.5021 67.64C43.7368 67.64 43.0601 67.5 42.4721 67.22C41.8841 66.9307 41.4221 66.4967 41.0861 65.918C40.7501 65.3393 40.5821 64.6113 40.5821 63.734C40.5821 62.838 40.7315 62.096 41.0301 61.508C41.3381 60.9107 41.7628 60.4627 42.3041 60.164C42.8455 59.8653 43.4755 59.716 44.1941 59.716ZM44.2081 61.2C43.8068 61.2 43.4708 61.3307 43.2001 61.592C42.9388 61.8533 42.7848 62.2593 42.7381 62.81H45.6641C45.6641 62.502 45.6081 62.2267 45.4961 61.984C45.3935 61.7413 45.2348 61.55 45.0201 61.41C44.8055 61.27 44.5348 61.2 44.2081 61.2ZM52.4236 67.64C51.6676 67.64 51.0236 67.5047 50.4916 67.234C49.9596 66.954 49.5536 66.5247 49.2736 65.946C48.9936 65.3673 48.8536 64.6253 48.8536 63.72C48.8536 62.7867 49.0123 62.026 49.3296 61.438C49.647 60.85 50.0856 60.416 50.6456 60.136C51.215 59.856 51.8683 59.716 52.6056 59.716C53.1283 59.716 53.581 59.7673 53.9636 59.87C54.3556 59.9727 54.6963 60.094 54.9856 60.234L54.3696 61.844C54.043 61.7133 53.735 61.606 53.4456 61.522C53.1656 61.438 52.8856 61.396 52.6056 61.396C52.2416 61.396 51.9383 61.4847 51.6956 61.662C51.453 61.83 51.271 62.0867 51.1496 62.432C51.0376 62.768 50.9816 63.1927 50.9816 63.706C50.9816 64.21 51.0423 64.63 51.1636 64.966C51.2943 65.2927 51.481 65.54 51.7236 65.708C51.9663 65.8667 52.2603 65.946 52.6056 65.946C53.0443 65.946 53.4316 65.89 53.7676 65.778C54.1036 65.6567 54.4303 65.4933 54.7476 65.288V67.066C54.4303 67.2713 54.0943 67.416 53.7396 67.5C53.3943 67.5933 52.9556 67.64 52.4236 67.64ZM59.727 65.974C59.9604 65.974 60.1844 65.9507 60.399 65.904C60.6137 65.8573 60.8284 65.8013 61.043 65.736V67.29C60.819 67.3833 60.539 67.4627 60.203 67.528C59.8764 67.6027 59.517 67.64 59.125 67.64C58.6677 67.64 58.257 67.5653 57.893 67.416C57.5384 67.2667 57.2537 67.01 57.039 66.646C56.8337 66.2727 56.731 65.7593 56.731 65.106V61.424H55.737V60.542L56.885 59.842L57.487 58.232H58.817V59.856H60.959V61.424H58.817V65.106C58.817 65.3953 58.901 65.6147 59.069 65.764C59.237 65.904 59.4564 65.974 59.727 65.974ZM70.6101 67.5L68.2021 59.66H68.1461C68.1554 59.8467 68.1694 60.1267 68.1881 60.5C68.2067 60.8733 68.2254 61.2747 68.2441 61.704C68.2627 62.124 68.2721 62.5067 68.2721 62.852V67.5H66.3821V57.504H69.2661L71.6321 65.148H71.6741L74.1801 57.504H77.0641V67.5H75.0901V62.768C75.0901 62.4507 75.0947 62.0867 75.1041 61.676C75.1227 61.2653 75.1367 60.878 75.1461 60.514C75.1647 60.1407 75.1787 59.8607 75.1881 59.674H75.1321L72.5561 67.5H70.6101ZM82.5571 59.702C83.5838 59.702 84.3678 59.926 84.9091 60.374C85.4598 60.8127 85.7351 61.4893 85.7351 62.404V67.5H84.2791L83.8731 66.464H83.8171C83.6024 66.7347 83.3784 66.9587 83.1451 67.136C82.9211 67.3133 82.6598 67.4393 82.3611 67.514C82.0718 67.598 81.7124 67.64 81.2831 67.64C80.8351 67.64 80.4291 67.556 80.0651 67.388C79.7104 67.2107 79.4304 66.9447 79.2251 66.59C79.0198 66.226 78.9171 65.7687 78.9171 65.218C78.9171 64.406 79.2018 63.8087 79.7711 63.426C80.3404 63.034 81.1944 62.8193 82.3331 62.782L83.6631 62.74V62.404C83.6631 62.0027 83.5558 61.7087 83.3411 61.522C83.1358 61.3353 82.8464 61.242 82.4731 61.242C82.0998 61.242 81.7358 61.298 81.3811 61.41C81.0264 61.5127 80.6718 61.6433 80.3171 61.802L79.6311 60.388C80.0418 60.1733 80.4944 60.0053 80.9891 59.884C81.4931 59.7627 82.0158 59.702 82.5571 59.702ZM82.8511 63.986C82.1791 64.0047 81.7124 64.126 81.4511 64.35C81.1898 64.574 81.0591 64.868 81.0591 65.232C81.0591 65.5493 81.1524 65.778 81.3391 65.918C81.5258 66.0487 81.7684 66.114 82.0671 66.114C82.5151 66.114 82.8931 65.9833 83.2011 65.722C83.5091 65.4513 83.6631 65.0733 83.6631 64.588V63.958L82.8511 63.986ZM92.2103 59.716C93.0317 59.716 93.6897 59.94 94.1843 60.388C94.679 60.8267 94.9263 61.536 94.9263 62.516V67.5H92.8403V63.034C92.8403 62.4833 92.7423 62.0727 92.5463 61.802C92.3503 61.522 92.0377 61.382 91.6083 61.382C90.9737 61.382 90.5397 61.6013 90.3063 62.04C90.073 62.4693 89.9563 63.09 89.9563 63.902V67.5H87.8703V59.856H89.4663L89.7463 60.836H89.8583C90.0263 60.5747 90.2317 60.3647 90.4743 60.206C90.717 60.038 90.9877 59.9167 91.2863 59.842C91.585 59.758 91.893 59.716 92.2103 59.716ZM100.207 59.702C101.234 59.702 102.018 59.926 102.559 60.374C103.11 60.8127 103.385 61.4893 103.385 62.404V67.5H101.929L101.523 66.464H101.467C101.253 66.7347 101.029 66.9587 100.795 67.136C100.571 67.3133 100.31 67.4393 100.011 67.514C99.7222 67.598 99.3628 67.64 98.9335 67.64C98.4855 67.64 98.0795 67.556 97.7155 67.388C97.3608 67.2107 97.0808 66.9447 96.8755 66.59C96.6702 66.226 96.5675 65.7687 96.5675 65.218C96.5675 64.406 96.8522 63.8087 97.4215 63.426C97.9908 63.034 98.8448 62.8193 99.9835 62.782L101.313 62.74V62.404C101.313 62.0027 101.206 61.7087 100.991 61.522C100.786 61.3353 100.497 61.242 100.123 61.242C99.7502 61.242 99.3862 61.298 99.0315 61.41C98.6768 61.5127 98.3222 61.6433 97.9675 61.802L97.2815 60.388C97.6922 60.1733 98.1448 60.0053 98.6395 59.884C99.1435 59.7627 99.6662 59.702 100.207 59.702ZM100.501 63.986C99.8295 64.0047 99.3628 64.126 99.1015 64.35C98.8402 64.574 98.7095 64.868 98.7095 65.232C98.7095 65.5493 98.8028 65.778 98.9895 65.918C99.1762 66.0487 99.4188 66.114 99.7175 66.114C100.165 66.114 100.543 65.9833 100.851 65.722C101.159 65.4513 101.313 65.0733 101.313 64.588V63.958L100.501 63.986ZM107.999 59.716C108.465 59.716 108.885 59.8093 109.259 59.996C109.632 60.1827 109.949 60.4627 110.211 60.836H110.267L110.435 59.856H112.199V67.514C112.199 68.242 112.054 68.8533 111.765 69.348C111.485 69.8427 111.06 70.216 110.491 70.468C109.921 70.7293 109.217 70.86 108.377 70.86C107.835 70.86 107.331 70.8273 106.865 70.762C106.407 70.6967 105.959 70.58 105.521 70.412V68.746C105.838 68.8767 106.155 68.984 106.473 69.068C106.799 69.1613 107.131 69.2267 107.467 69.264C107.812 69.3107 108.157 69.334 108.503 69.334C109.044 69.334 109.445 69.1893 109.707 68.9C109.977 68.6107 110.113 68.1767 110.113 67.598V67.444C110.113 67.2853 110.117 67.122 110.127 66.954C110.145 66.786 110.159 66.6367 110.169 66.506H110.113C109.851 66.9073 109.539 67.1967 109.175 67.374C108.811 67.5513 108.4 67.64 107.943 67.64C107.037 67.64 106.328 67.2947 105.815 66.604C105.311 65.904 105.059 64.9333 105.059 63.692C105.059 62.852 105.175 62.138 105.409 61.55C105.642 60.9527 105.978 60.5 106.417 60.192C106.865 59.8747 107.392 59.716 107.999 59.716ZM108.657 61.41C108.33 61.41 108.055 61.4987 107.831 61.676C107.616 61.844 107.453 62.1007 107.341 62.446C107.238 62.782 107.187 63.2067 107.187 63.72C107.187 64.4853 107.308 65.0593 107.551 65.442C107.793 65.8153 108.171 66.002 108.685 66.002C108.955 66.002 109.189 65.9693 109.385 65.904C109.581 65.8293 109.739 65.7127 109.861 65.554C109.991 65.386 110.089 65.1713 110.155 64.91C110.22 64.6487 110.253 64.3313 110.253 63.958V63.706C110.253 63.1553 110.197 62.712 110.085 62.376C109.973 62.04 109.8 61.7973 109.567 61.648C109.333 61.4893 109.03 61.41 108.657 61.41ZM117.53 59.716C118.239 59.716 118.846 59.8513 119.35 60.122C119.863 60.3927 120.26 60.7847 120.54 61.298C120.82 61.8113 120.96 62.4413 120.96 63.188V64.196H116.032C116.051 64.784 116.223 65.246 116.55 65.582C116.886 65.918 117.348 66.086 117.936 66.086C118.431 66.086 118.879 66.0393 119.28 65.946C119.681 65.8433 120.097 65.6893 120.526 65.484V67.094C120.153 67.2807 119.756 67.416 119.336 67.5C118.925 67.5933 118.426 67.64 117.838 67.64C117.073 67.64 116.396 67.5 115.808 67.22C115.22 66.9307 114.758 66.4967 114.422 65.918C114.086 65.3393 113.918 64.6113 113.918 63.734C113.918 62.838 114.067 62.096 114.366 61.508C114.674 60.9107 115.099 60.4627 115.64 60.164C116.181 59.8653 116.811 59.716 117.53 59.716ZM117.544 61.2C117.143 61.2 116.807 61.3307 116.536 61.592C116.275 61.8533 116.121 62.2593 116.074 62.81H119C119 62.502 118.944 62.2267 118.832 61.984C118.729 61.7413 118.571 61.55 118.356 61.41C118.141 61.27 117.871 61.2 117.544 61.2ZM131.626 59.716C132.494 59.716 133.147 59.94 133.586 60.388C134.034 60.8267 134.258 61.536 134.258 62.516V67.5H132.172V63.034C132.172 62.4833 132.078 62.0727 131.892 61.802C131.705 61.522 131.416 61.382 131.024 61.382C130.473 61.382 130.081 61.578 129.848 61.97C129.614 62.362 129.498 62.9267 129.498 63.664V67.5H127.412V63.034C127.412 62.67 127.37 62.3667 127.286 62.124C127.202 61.8813 127.076 61.6993 126.908 61.578C126.74 61.4473 126.525 61.382 126.264 61.382C125.881 61.382 125.578 61.48 125.354 61.676C125.13 61.872 124.971 62.1567 124.878 62.53C124.784 62.9033 124.738 63.3607 124.738 63.902V67.5H122.652V59.856H124.248L124.528 60.836H124.64C124.798 60.5747 124.994 60.3647 125.228 60.206C125.461 60.038 125.718 59.9167 125.998 59.842C126.287 59.758 126.576 59.716 126.866 59.716C127.426 59.716 127.902 59.8093 128.294 59.996C128.686 60.1733 128.984 60.4533 129.19 60.836H129.372C129.605 60.444 129.927 60.1593 130.338 59.982C130.758 59.8047 131.187 59.716 131.626 59.716ZM139.555 59.716C140.265 59.716 140.871 59.8513 141.375 60.122C141.889 60.3927 142.285 60.7847 142.565 61.298C142.845 61.8113 142.985 62.4413 142.985 63.188V64.196H138.057C138.076 64.784 138.249 65.246 138.575 65.582C138.911 65.918 139.373 66.086 139.961 66.086C140.456 66.086 140.904 66.0393 141.305 65.946C141.707 65.8433 142.122 65.6893 142.551 65.484V67.094C142.178 67.2807 141.781 67.416 141.361 67.5C140.951 67.5933 140.451 67.64 139.863 67.64C139.098 67.64 138.421 67.5 137.833 67.22C137.245 66.9307 136.783 66.4967 136.447 65.918C136.111 65.3393 135.943 64.6113 135.943 63.734C135.943 62.838 136.093 62.096 136.391 61.508C136.699 60.9107 137.124 60.4627 137.665 60.164C138.207 59.8653 138.837 59.716 139.555 59.716ZM139.569 61.2C139.168 61.2 138.832 61.3307 138.561 61.592C138.3 61.8533 138.146 62.2593 138.099 62.81H141.025C141.025 62.502 140.969 62.2267 140.857 61.984C140.755 61.7413 140.596 61.55 140.381 61.41C140.167 61.27 139.896 61.2 139.569 61.2ZM149.017 59.716C149.838 59.716 150.496 59.94 150.991 60.388C151.486 60.8267 151.733 61.536 151.733 62.516V67.5H149.647V63.034C149.647 62.4833 149.549 62.0727 149.353 61.802C149.157 61.522 148.844 61.382 148.415 61.382C147.78 61.382 147.346 61.6013 147.113 62.04C146.88 62.4693 146.763 63.09 146.763 63.902V67.5H144.677V59.856H146.273L146.553 60.836H146.665C146.833 60.5747 147.038 60.3647 147.281 60.206C147.524 60.038 147.794 59.9167 148.093 59.842C148.392 59.758 148.7 59.716 149.017 59.716ZM157.098 65.974C157.331 65.974 157.555 65.9507 157.77 65.904C157.985 65.8573 158.199 65.8013 158.414 65.736V67.29C158.19 67.3833 157.91 67.4627 157.574 67.528C157.247 67.6027 156.888 67.64 156.496 67.64C156.039 67.64 155.628 67.5653 155.264 67.416C154.909 67.2667 154.625 67.01 154.41 66.646C154.205 66.2727 154.102 65.7593 154.102 65.106V61.424H153.108V60.542L154.256 59.842L154.858 58.232H156.188V59.856H158.33V61.424H156.188V65.106C156.188 65.3953 156.272 65.6147 156.44 65.764C156.608 65.904 156.827 65.974 157.098 65.974Z" fill="white"/>
<defs>
<clipPath id="clip0_1148_29597">
<rect width="41.125" height="42" fill="white" transform="translate(64.9375 2.5)"/>
</clipPath>
</defs>
</svg>
