<svg width="35" height="35" viewBox="0 0 35 35" fill="none" xmlns="http://www.w3.org/2000/svg">
<path d="M35 35H0V0H35V35Z" fill="black"/>
<path d="M24.2929 10.64C23.3801 10.535 22.5025 10.465 21.5898 10.395C20.677 10.325 19.7994 10.29 18.8867 10.29C18.4303 10.29 17.9739 10.255 17.4824 10.255C17.0612 10.255 16.6048 10.255 16.1835 10.29C15.2708 10.29 14.3932 10.36 13.4804 10.395C12.5677 10.465 11.6901 10.535 10.7773 10.64C9.86459 10.745 8.98696 10.85 8.07422 10.99V13.72C8.98696 13.58 9.86459 13.44 10.7773 13.335C11.655 13.23 12.5677 13.16 13.4804 13.09C14.3932 13.02 15.2708 12.985 16.1835 12.985C16.6048 12.985 17.0612 12.985 17.4824 12.985C17.9388 12.985 18.3952 12.985 18.8867 12.985C19.7994 13.02 20.677 13.055 21.5898 13.09C22.5025 13.16 23.3801 13.23 24.2929 13.335C25.2056 13.44 26.0832 13.58 26.996 13.72V10.99C26.1184 10.85 25.2056 10.745 24.2929 10.64Z" fill="white"/>
<path d="M24.2929 16.17C23.4152 16.065 22.5025 15.96 21.5898 15.925C20.677 15.855 19.7994 15.82 18.8867 15.785C18.4303 15.785 17.9739 15.75 17.4824 15.75C17.0612 15.75 16.6048 15.75 16.1835 15.75C15.2708 15.785 14.3932 15.82 13.4804 15.89C12.5677 15.96 11.6901 16.03 10.7773 16.135C9.86459 16.24 8.95185 16.38 8.07422 16.52V19.25V24.71H10.7773V18.865C11.6901 18.76 12.5677 18.655 13.4804 18.585V24.71H16.1484V18.48C16.5697 18.48 17.0261 18.445 17.4473 18.445C17.9037 18.445 18.3601 18.445 18.8516 18.48V24.745H21.5547V18.585C22.4674 18.655 23.345 18.725 24.2578 18.865V24.71H26.9609V19.285V16.555C26.1184 16.415 25.2056 16.275 24.2929 16.17Z" fill="white"/>
</svg>
